<svg width="28" height="28" viewBox="0 0 28 28" fill="none" xmlns="http://www.w3.org/2000/svg">
<path fill-rule="evenodd" clip-rule="evenodd" d="M14.0047 23.3333C14.0047 23.3333 6.76666 17.5342 6.76666 11.9047C6.76666 9.98502 7.52924 8.14401 8.88662 6.78662C10.244 5.42923 12.085 4.66666 14.0047 4.66666C15.9243 4.66666 17.7653 5.42923 19.1227 6.78662C20.4801 8.14401 21.2427 9.98502 21.2427 11.9047C21.2427 17.5342 14.0047 23.3333 14.0047 23.3333Z" stroke="white" stroke-width="1.7" stroke-linecap="round" stroke-linejoin="round"/>
<path d="M13.9316 13.9277C15.1274 13.9277 16.0969 12.9582 16.0969 11.7623C16.0969 10.5664 15.1274 9.59698 13.9316 9.59698C12.7357 9.59698 11.7662 10.5664 11.7662 11.7623C11.7662 12.9582 12.7357 13.9277 13.9316 13.9277Z" stroke="white" stroke-width="1.7" stroke-linecap="square" stroke-linejoin="round"/>
</svg>
